<mxfile host="app.diagrams.net" agent="Mozilla/5.0 (Windows NT 10.0; Win64; x64) AppleWebKit/537.36 (KHTML, like Gecko) Chrome/130.0.0.0 Safari/537.36 Edg/130.0.0.0" version="24.8.3">
  <diagram name="Trang-1" id="oZLMj4_pQZZMd7g6r8dM">
    <mxGraphModel dx="2624" dy="1907" grid="1" gridSize="10" guides="1" tooltips="1" connect="1" arrows="1" fold="1" page="1" pageScale="1" pageWidth="850" pageHeight="1100" math="0" shadow="0">
      <root>
        <mxCell id="0" />
        <mxCell id="1" parent="0" />
        <mxCell id="hBZrfMGhQpvPfZrwKcGj-9" value="" style="whiteSpace=wrap;html=1;aspect=fixed;" vertex="1" parent="1">
          <mxGeometry x="50" y="-140" width="710" height="710" as="geometry" />
        </mxCell>
        <mxCell id="hBZrfMGhQpvPfZrwKcGj-1" value="Nhân Viên tư vấn" style="shape=umlActor;verticalLabelPosition=bottom;verticalAlign=top;html=1;outlineConnect=0;" vertex="1" parent="1">
          <mxGeometry x="-170" y="139" width="70" height="100" as="geometry" />
        </mxCell>
        <mxCell id="hBZrfMGhQpvPfZrwKcGj-2" value="&lt;span style=&quot;font-size: 14px;&quot;&gt;Tư vấn thiết kế&lt;/span&gt;&lt;div&gt;&lt;span style=&quot;font-size: 14px;&quot;&gt;và phong cách&lt;/span&gt;&lt;/div&gt;" style="ellipse;whiteSpace=wrap;html=1;" vertex="1" parent="1">
          <mxGeometry x="320.62" y="-10" width="171.5" height="100" as="geometry" />
        </mxCell>
        <mxCell id="hBZrfMGhQpvPfZrwKcGj-3" value="&lt;font style=&quot;font-size: 14px;&quot;&gt;Ước lượng chi phí&lt;/font&gt;" style="ellipse;whiteSpace=wrap;html=1;" vertex="1" parent="1">
          <mxGeometry x="331.75" y="90" width="150.75" height="90" as="geometry" />
        </mxCell>
        <mxCell id="hBZrfMGhQpvPfZrwKcGj-4" value="&lt;font style=&quot;font-size: 14px;&quot;&gt;Lập báo giá&lt;/font&gt;" style="ellipse;whiteSpace=wrap;html=1;" vertex="1" parent="1">
          <mxGeometry x="322.12" y="190" width="170" height="70" as="geometry" />
        </mxCell>
        <mxCell id="hBZrfMGhQpvPfZrwKcGj-5" value="&lt;font style=&quot;font-size: 14px;&quot;&gt;Lên nhiệm vụ thiết kế&lt;/font&gt;" style="ellipse;whiteSpace=wrap;html=1;" vertex="1" parent="1">
          <mxGeometry x="327.5" y="280" width="155" height="60" as="geometry" />
        </mxCell>
        <mxCell id="hBZrfMGhQpvPfZrwKcGj-6" value="&lt;font style=&quot;font-size: 14px;&quot;&gt;Hỗ trợ định hình ý tưởng&lt;/font&gt;" style="ellipse;whiteSpace=wrap;html=1;" vertex="1" parent="1">
          <mxGeometry x="327.5" y="350" width="150" height="60" as="geometry" />
        </mxCell>
        <mxCell id="hBZrfMGhQpvPfZrwKcGj-8" value="&lt;font style=&quot;font-size: 14px;&quot;&gt;Xác nhận yêu cầu&amp;nbsp;&lt;/font&gt;&lt;div&gt;&lt;font size=&quot;3&quot; style=&quot;&quot;&gt;thiết kế&lt;/font&gt;&lt;/div&gt;" style="ellipse;whiteSpace=wrap;html=1;" vertex="1" parent="1">
          <mxGeometry x="320" y="430" width="165" height="70" as="geometry" />
        </mxCell>
        <mxCell id="hBZrfMGhQpvPfZrwKcGj-11" value="&lt;font style=&quot;font-size: 24px;&quot;&gt;Chức năng nhân viên tư vấn&lt;/font&gt;" style="text;html=1;align=center;verticalAlign=middle;whiteSpace=wrap;rounded=0;" vertex="1" parent="1">
          <mxGeometry x="230.5" y="-140" width="380" height="130" as="geometry" />
        </mxCell>
        <mxCell id="hBZrfMGhQpvPfZrwKcGj-14" value="&amp;nbsp;Khách hàng" style="shape=umlActor;verticalLabelPosition=bottom;verticalAlign=top;html=1;outlineConnect=0;" vertex="1" parent="1">
          <mxGeometry x="910" y="130" width="70" height="120" as="geometry" />
        </mxCell>
        <mxCell id="hBZrfMGhQpvPfZrwKcGj-17" value="" style="endArrow=classic;html=1;rounded=0;exitX=1;exitY=0.3333333333333333;exitDx=0;exitDy=0;exitPerimeter=0;entryX=0;entryY=0.5;entryDx=0;entryDy=0;" edge="1" parent="1" source="hBZrfMGhQpvPfZrwKcGj-1" target="hBZrfMGhQpvPfZrwKcGj-2">
          <mxGeometry width="50" height="50" relative="1" as="geometry">
            <mxPoint x="340" y="240" as="sourcePoint" />
            <mxPoint x="390" y="190" as="targetPoint" />
          </mxGeometry>
        </mxCell>
        <mxCell id="hBZrfMGhQpvPfZrwKcGj-18" value="" style="endArrow=classic;html=1;rounded=0;exitX=1;exitY=0.3333333333333333;exitDx=0;exitDy=0;exitPerimeter=0;entryX=0;entryY=0.5;entryDx=0;entryDy=0;" edge="1" parent="1" source="hBZrfMGhQpvPfZrwKcGj-1" target="hBZrfMGhQpvPfZrwKcGj-3">
          <mxGeometry width="50" height="50" relative="1" as="geometry">
            <mxPoint x="340" y="240" as="sourcePoint" />
            <mxPoint x="390" y="190" as="targetPoint" />
          </mxGeometry>
        </mxCell>
        <mxCell id="hBZrfMGhQpvPfZrwKcGj-19" value="" style="endArrow=classic;html=1;rounded=0;exitX=1;exitY=0.3333333333333333;exitDx=0;exitDy=0;exitPerimeter=0;entryX=0;entryY=0.5;entryDx=0;entryDy=0;" edge="1" parent="1" source="hBZrfMGhQpvPfZrwKcGj-1" target="hBZrfMGhQpvPfZrwKcGj-4">
          <mxGeometry width="50" height="50" relative="1" as="geometry">
            <mxPoint x="340" y="240" as="sourcePoint" />
            <mxPoint x="390" y="190" as="targetPoint" />
          </mxGeometry>
        </mxCell>
        <mxCell id="hBZrfMGhQpvPfZrwKcGj-20" value="" style="endArrow=classic;html=1;rounded=0;exitX=1;exitY=0.3333333333333333;exitDx=0;exitDy=0;exitPerimeter=0;entryX=0;entryY=0.5;entryDx=0;entryDy=0;" edge="1" parent="1" source="hBZrfMGhQpvPfZrwKcGj-1" target="hBZrfMGhQpvPfZrwKcGj-5">
          <mxGeometry width="50" height="50" relative="1" as="geometry">
            <mxPoint x="340" y="240" as="sourcePoint" />
            <mxPoint x="390" y="190" as="targetPoint" />
          </mxGeometry>
        </mxCell>
        <mxCell id="hBZrfMGhQpvPfZrwKcGj-21" value="" style="endArrow=classic;html=1;rounded=0;exitX=1;exitY=0.3333333333333333;exitDx=0;exitDy=0;exitPerimeter=0;entryX=0;entryY=0.5;entryDx=0;entryDy=0;" edge="1" parent="1" source="hBZrfMGhQpvPfZrwKcGj-1" target="hBZrfMGhQpvPfZrwKcGj-6">
          <mxGeometry width="50" height="50" relative="1" as="geometry">
            <mxPoint x="340" y="240" as="sourcePoint" />
            <mxPoint x="390" y="190" as="targetPoint" />
          </mxGeometry>
        </mxCell>
        <mxCell id="hBZrfMGhQpvPfZrwKcGj-22" value="" style="endArrow=classic;html=1;rounded=0;exitX=1;exitY=0.3333333333333333;exitDx=0;exitDy=0;exitPerimeter=0;entryX=0;entryY=0.5;entryDx=0;entryDy=0;" edge="1" parent="1" source="hBZrfMGhQpvPfZrwKcGj-1" target="hBZrfMGhQpvPfZrwKcGj-8">
          <mxGeometry width="50" height="50" relative="1" as="geometry">
            <mxPoint x="340" y="240" as="sourcePoint" />
            <mxPoint x="-10" y="500" as="targetPoint" />
          </mxGeometry>
        </mxCell>
        <mxCell id="hBZrfMGhQpvPfZrwKcGj-23" value="" style="endArrow=none;dashed=1;html=1;rounded=0;entryX=0;entryY=0.3333333333333333;entryDx=0;entryDy=0;entryPerimeter=0;exitX=1;exitY=0.5;exitDx=0;exitDy=0;" edge="1" parent="1" source="hBZrfMGhQpvPfZrwKcGj-2" target="hBZrfMGhQpvPfZrwKcGj-14">
          <mxGeometry width="50" height="50" relative="1" as="geometry">
            <mxPoint x="340" y="240" as="sourcePoint" />
            <mxPoint x="390" y="190" as="targetPoint" />
          </mxGeometry>
        </mxCell>
        <mxCell id="hBZrfMGhQpvPfZrwKcGj-26" value="Include" style="edgeLabel;html=1;align=center;verticalAlign=middle;resizable=0;points=[];" vertex="1" connectable="0" parent="hBZrfMGhQpvPfZrwKcGj-23">
          <mxGeometry x="-0.1192" y="-2" relative="1" as="geometry">
            <mxPoint as="offset" />
          </mxGeometry>
        </mxCell>
        <mxCell id="hBZrfMGhQpvPfZrwKcGj-24" value="" style="endArrow=none;dashed=1;html=1;rounded=0;entryX=0;entryY=0.3333333333333333;entryDx=0;entryDy=0;entryPerimeter=0;exitX=1;exitY=0.5;exitDx=0;exitDy=0;" edge="1" parent="1" source="hBZrfMGhQpvPfZrwKcGj-6" target="hBZrfMGhQpvPfZrwKcGj-14">
          <mxGeometry width="50" height="50" relative="1" as="geometry">
            <mxPoint x="340" y="240" as="sourcePoint" />
            <mxPoint x="390" y="190" as="targetPoint" />
          </mxGeometry>
        </mxCell>
        <mxCell id="hBZrfMGhQpvPfZrwKcGj-27" value="Include" style="edgeLabel;html=1;align=center;verticalAlign=middle;resizable=0;points=[];" vertex="1" connectable="0" parent="hBZrfMGhQpvPfZrwKcGj-24">
          <mxGeometry x="-0.0182" relative="1" as="geometry">
            <mxPoint as="offset" />
          </mxGeometry>
        </mxCell>
        <mxCell id="hBZrfMGhQpvPfZrwKcGj-25" value="" style="endArrow=none;dashed=1;html=1;rounded=0;entryX=0;entryY=0.3333333333333333;entryDx=0;entryDy=0;entryPerimeter=0;exitX=1;exitY=0.5;exitDx=0;exitDy=0;" edge="1" parent="1" source="hBZrfMGhQpvPfZrwKcGj-8" target="hBZrfMGhQpvPfZrwKcGj-14">
          <mxGeometry width="50" height="50" relative="1" as="geometry">
            <mxPoint x="340" y="240" as="sourcePoint" />
            <mxPoint x="910" y="170" as="targetPoint" />
          </mxGeometry>
        </mxCell>
        <mxCell id="hBZrfMGhQpvPfZrwKcGj-28" value="Include" style="edgeLabel;html=1;align=center;verticalAlign=middle;resizable=0;points=[];" vertex="1" connectable="0" parent="hBZrfMGhQpvPfZrwKcGj-25">
          <mxGeometry x="0.0468" y="-4" relative="1" as="geometry">
            <mxPoint x="-1" as="offset" />
          </mxGeometry>
        </mxCell>
      </root>
    </mxGraphModel>
  </diagram>
</mxfile>
